<svg xmlns="http://www.w3.org/2000/svg" width="256" height="256" viewBox="0 0 100 100"><rect width="100" height="100" rx="20" fill="#397394"></rect><path fill="#fffaf2" d="M21.26 73.30L14.78 73.30L14.78 28.66L32.82 28.66Q33.48 28.66 34.44 28.70Q35.40 28.75 36.27 28.90L36.27 28.90Q39.99 29.49 42.48 31.45Q44.98 33.40 46.22 36.38Q47.46 39.35 47.46 42.95L47.46 42.95Q47.46 48.28 44.73 52.14Q42.00 56.00 36.54 56.96L36.54 56.96L33.91 57.27L21.26 57.27L21.26 73.30ZM48.29 73.30L40.88 73.30L32.08 55.13L38.62 53.46L48.29 73.30ZM21.26 34.76L21.26 51.13L32.58 51.13Q33.20 51.13 33.96 51.07Q34.72 51.01 35.40 50.85L35.40 50.85Q37.38 50.39 38.59 49.13Q39.80 47.88 40.33 46.23Q40.85 44.59 40.85 42.95L40.85 42.95Q40.85 41.30 40.33 39.68Q39.80 38.05 38.59 36.79Q37.38 35.54 35.40 35.07L35.40 35.07Q34.72 34.89 33.96 34.83Q33.20 34.76 32.58 34.76L32.58 34.76L21.26 34.76ZM69.65 31.38L62.12 35.72L59.67 31.54L69.65 25.77L79.63 31.54L77.15 35.72L69.65 31.38ZM69.96 74.23L69.96 74.23Q64.97 74.23 61.21 72.04Q57.44 69.86 55.35 65.93Q53.25 62.01 53.25 56.84L53.25 56.84Q53.25 51.35 55.32 47.32Q57.38 43.29 61.07 41.09Q64.75 38.89 69.65 38.89L69.65 38.89Q74.77 38.89 78.36 41.26Q81.96 43.63 83.74 48.00Q85.52 52.37 85.15 58.39L85.15 58.39L78.67 58.39L78.67 56.03Q78.61 50.20 76.46 47.41Q74.30 44.62 69.90 44.62L69.90 44.62Q65.03 44.62 62.58 47.69Q60.14 50.76 60.14 56.56L60.14 56.56Q60.14 62.07 62.58 65.10Q65.03 68.12 69.65 68.12L69.65 68.12Q72.69 68.12 74.91 66.74Q77.12 65.36 78.36 62.79L78.36 62.79L84.72 64.80Q82.77 69.30 78.80 71.76Q74.83 74.23 69.96 74.23ZM81.93 58.39L58.03 58.39L58.03 53.33L81.93 53.33L81.93 58.39Z"></path></svg>