<svg class="waves" xmlns="http://www.w3.org/2000/svg" viewBox="0 0 1440 320">

    <path class="wave-1"
        fill="#43818A"                                 
        d="M0,160L34.3,144C68.6,128,137,96,206,74.7C274.3,53,343,43,411,74.7C480,107,549,181,617,186.7C685.7,192,754,128,823,101.3C891.4,75,960,85,1029,101.3C1097.1,117,1166,139,1234,122.7C1302.9,107,1371,53,1406,26.7L1440,0L1440,320L1405.7,320C1371.4,320,1303,320,1234,320C1165.7,320,1097,320,1029,320C960,320,891,320,823,320C754.3,320,686,320,617,320C548.6,320,480,320,411,320C342.9,320,274,320,206,320C137.1,320,69,320,34,320L0,320Z">
    </path>

    <path class="wave-2"
        fill="#58abb8"
        d="M0,96L26.7,85.3C53.3,75,107,53,160,74.7C213.3,96,267,160,320,192C373.3,224,427,224,480,192C533.3,160,587,96,640,112C693.3,128,747,224,800,250.7C853.3,277,907,235,960,197.3C1013.3,160,1067,128,1120,128C1173.3,128,1227,160,1280,170.7C1333.3,181,1387,171,1413,165.3L1440,160L1440,320L1413.3,320C1386.7,320,1333,320,1280,320C1226.7,320,1173,320,1120,320C1066.7,320,1013,320,960,320C906.7,320,853,320,800,320C746.7,320,693,320,640,320C586.7,320,533,320,480,320C426.7,320,373,320,320,320C266.7,320,213,320,160,320C106.7,320,53,320,27,320L0,320Z">                  
    </path>

    <path class="wave-3"
        fill="#8BC6EC"                
        d="M0,224L34.3,229.3C68.6,235,137,245,206,261.3C274.3,277,343,299,411,293.3C480,288,549,256,617,250.7C685.7,245,754,267,823,250.7C891.4,235,960,181,1029,154.7C1097.1,128,1166,128,1234,138.7C1302.9,149,1371,171,1406,181.3L1440,192L1440,320L1405.7,320C1371.4,320,1303,320,1234,320C1165.7,320,1097,320,1029,320C960,320,891,320,823,320C754.3,320,686,320,617,320C548.6,320,480,320,411,320C342.9,320,274,320,206,320C137.1,320,69,320,34,320L0,320Z">                
    </path>          
            
</svg>        